<?xml version="1.0" standalone="no"?>
<svg viewBox="0 0 200 200" xmlns="http://www.w3.org/2000/svg">
  <path fill="#198940" d="M47.5,-70.6C62.1,-64.5,74.8,-52.3,82.6,-37.2C90.3,-22.1,93.1,-4.1,90,12.5C87,29.2,78.2,44.7,63.8,47.8C49.5,51,29.5,41.9,15.7,39.6C1.9,37.3,-5.9,41.8,-13.1,41.2C-20.4,40.7,-27.1,35,-34.8,28.7C-42.6,22.4,-51.2,15.5,-53.1,7.2C-54.9,-1.1,-49.9,-10.8,-43,-17.1C-36.1,-23.3,-27.4,-26.1,-19.9,-35.4C-12.4,-44.7,-6.2,-60.5,5.1,-68.5C16.5,-76.5,32.9,-76.6,47.5,-70.6Z" transform="translate(100 100)" />
</svg>
