<?xml version="1.0" encoding="UTF-8" standalone="no"?>
<!-- Created with Inkscape (http://www.inkscape.org/) -->

<svg
   width="181.97284mm"
   height="185.54691mm"
   viewBox="0 0 181.97284 185.54691"
   version="1.1"
   id="svg5"
   xml:space="preserve"
   xmlns:inkscape="http://www.inkscape.org/namespaces/inkscape"
   xmlns:sodipodi="http://sodipodi.sourceforge.net/DTD/sodipodi-0.dtd"
   xmlns="http://www.w3.org/2000/svg"
   xmlns:svg="http://www.w3.org/2000/svg"><sodipodi:namedview
     id="namedview7"
     pagecolor="#ffffff"
     bordercolor="#000000"
     borderopacity="0.25"
     inkscape:showpageshadow="2"
     inkscape:pageopacity="0.0"
     inkscape:pagecheckerboard="0"
     inkscape:deskcolor="#d1d1d1"
     inkscape:document-units="mm"
     showgrid="false" /><defs
     id="defs2" /><g
     inkscape:groupmode="layer"
     id="layer3"
     inkscape:label="Camada 3"
     style="display:inline"
     transform="translate(-12.673791,-39.264476)"><g
       id="g35324"
       inkscape:export-filename="g35324.svg"
       inkscape:export-xdpi="96"
       inkscape:export-ydpi="96"><g
         id="g35310"><g
           id="g35297"><path
             d="m 72.8665,140.13687 c 0,3.63802 2.976563,6.28386 6.283854,6.28386 3.638021,0 6.283854,-2.97656 6.283854,-6.28386 v -25.46614 c 0,-3.63802 -2.976562,-6.28386 -6.283854,-6.28386 -3.638021,0 -6.283854,2.97657 -6.283854,6.28386 v 25.46614"
             id="path33312"
             style="fill:#137937;fill-opacity:1;stroke-width:3.30729" /><path
             d="m 54.014937,133.85302 c -3.638021,0 -6.283854,2.97656 -6.283854,6.28385 0,3.63802 2.976563,6.28386 6.283854,6.28386 h 25.466146 c 3.638021,0 6.283855,-2.97656 6.283855,-6.28386 0,-3.63802 -2.976563,-6.28385 -6.283855,-6.28385 H 54.014937"
             id="path33314"
             style="fill:#137937;fill-opacity:1;stroke-width:3.30729" /><path
             d="m 55.007125,78.951977 c -5.291667,0 -9.591146,4.299479 -9.591146,9.591146 V 195.03792 c 0,9.59114 4.299479,9.59114 9.591146,9.59114 5.291667,0 9.591146,0 9.591146,-9.59114 V 88.543123 c 0,-5.291667 -4.299479,-9.591146 -9.591146,-9.591146"
             fill="#83bf4f"
             id="path33318"
             style="fill:#1db954;fill-opacity:1;stroke-width:3.30729" /><path
             d="m 36.155562,161.63427 c 0,2.64583 -1.984375,4.63021 -4.630208,4.63021 -2.645834,0 -4.630209,-1.98438 -4.630209,-4.63021 v -19.18229 c 0,-2.64584 1.984375,-4.63021 4.630209,-4.63021 2.645833,0 4.630208,1.98437 4.630208,4.63021 v 19.18229"
             id="path33320"
             style="fill:#333333;fill-opacity:1;stroke-width:3.30729" /><path
             d="m 50.376916,157.00406 c 2.645834,0 4.630209,1.98438 4.630209,4.63021 0,2.64583 -1.984375,4.63021 -4.630209,4.63021 H 31.525354 c -2.645834,0 -4.630209,-1.98438 -4.630209,-4.63021 0,-2.64583 1.984375,-4.63021 4.630209,-4.63021 h 18.851562"
             id="path33322"
             style="fill:#333333;fill-opacity:1;stroke-width:3.30729" /><path
             d="m 12.673791,196.36083 c 0,3.63802 4.299479,3.30729 9.921875,3.30729 5.622396,0 9.921875,0.33073 9.921875,-3.30729 0,-3.63802 -4.299479,-6.61458 -9.921875,-6.61458 -5.622396,0 -9.921875,2.97656 -9.921875,6.61458"
             fill="#f9f3d9"
             id="path33326"
             style="fill:#137937;fill-opacity:1;stroke-width:3.30729" /><path
             d="m 56.660771,221.49625 c 0,3.63802 4.299479,3.30729 9.921875,3.30729 5.622396,0 9.921875,0.33073 9.921875,-3.30729 0,-3.63802 -4.299479,-6.61458 -9.921875,-6.61458 -5.622396,0 -9.921875,2.97656 -9.921875,6.61458"
             fill="#ffdd7d"
             id="path33328"
             style="fill:#1db954;fill-opacity:1;stroke-width:3.30729" /><path
             d="m 88.7415,209.59 c 0,3.63802 4.299479,3.30729 9.921875,3.30729 5.622395,0 9.921875,0.33073 9.921875,-3.30729 0,-3.63802 -4.29948,-6.61458 -9.921875,-6.61458 -5.622396,0 -9.921875,2.97656 -9.921875,6.61458"
             id="path33330"
             style="fill:#333333;fill-opacity:1;stroke-width:3.30729" /><path
             d="m 192.25973,195.69937 c -8.92969,2.64584 -17.85937,0.99219 -27.11979,1.65365 -0.66146,-1.98438 -1.32292,-3.96875 -2.31511,-5.95313 -0.99218,-2.3151 -4.6302,-1.32291 -3.63802,0.99219 0.66146,1.65365 1.32292,3.63802 1.98438,5.29167 -1.32292,0.33073 -2.97656,0.33073 -4.29948,0.99219 -4.63021,1.32291 -9.59115,2.64583 -14.22136,4.29948 4.29948,-4.29948 8.92969,-8.26823 14.22136,-11.57553 2.97656,-1.65364 6.61458,-2.64583 10.58333,-2.97656 h 0.33073 c 1.98438,-0.33073 4.29948,-0.33073 6.28386,-0.33073 l 4.96093,6.94532 c 1.32292,1.98437 4.96094,0 3.3073,-1.98438 -0.99219,-1.65365 -2.31511,-2.97656 -3.3073,-4.63021 3.3073,0 6.28386,0.33073 8.92969,0.33073 2.64583,0 2.64583,-3.96875 0,-3.96875 -4.96094,0 -10.91406,-0.66146 -16.53646,-0.33073 0.99219,-1.65364 2.31511,-3.30729 3.30729,-4.63021 1.32292,-1.98437 -1.98437,-4.29948 -3.30729,-1.98437 -1.65364,2.3151 -3.30729,4.63021 -4.96093,7.27604 -3.63803,0.33073 -7.27605,1.32292 -10.25261,2.64583 -5.95312,2.97657 -11.24479,7.60677 -16.20573,12.56771 3.30729,-6.61458 7.27604,-12.89844 12.89844,-16.53646 10.91406,-6.61458 22.15885,-10.2526 34.39583,-7.9375 2.31511,0.33073 3.63802,-3.63802 0.99219,-3.96875 -12.23698,-2.3151 -21.4974,0.99219 -32.41146,5.95313 0.66146,-1.32292 1.65365,-2.97656 2.31511,-4.29948 1.32291,-2.3151 -1.98438,-4.29948 -3.3073,-1.98438 -1.65364,3.3073 -3.63802,6.61459 -5.29166,9.92188 -5.6224,3.96875 -9.26042,10.2526 -12.56771,16.53646 0.99219,-6.94531 2.3151,-13.89063 6.28385,-18.52084 5.29167,-6.61458 11.2448,-10.58333 17.85938,-12.89843 2.3151,1.65364 4.96094,3.30729 7.27604,4.96093 1.98438,1.32292 3.96875,-1.98437 1.98438,-3.63802 -1.32292,-0.99218 -2.97657,-1.98437 -4.29948,-2.97656 3.63802,-0.99219 7.60677,-1.32292 11.90625,-1.32292 2.64583,0 2.64583,-3.96875 0,-3.96875 -5.29167,0 -11.2448,0 -16.20573,1.65365 -7.60677,2.3151 -13.89063,8.26823 -19.51302,13.89063 -7.9375,7.9375 -8.92969,21.16666 -9.92188,32.41145 -0.99219,0.33073 -1.65365,0.66146 -2.64583,0.99219 -2.31511,0.66146 -1.32292,4.63021 0.99218,3.96875 1.32292,-0.33073 2.64584,-0.99219 3.96875,-1.32292 8.92969,7.27605 15.21355,8.92969 26.78907,7.9375 11.90625,-0.99218 18.85156,-2.97656 27.78125,-11.24479 1.98437,-1.65364 -0.99219,-4.63021 -2.64584,-2.97656 -3.30729,3.30729 -6.61458,5.29167 -9.92187,6.94531 -1.32292,-1.98437 -2.64583,-3.96875 -3.63802,-6.28385 -1.32292,-2.31511 -4.63021,0 -3.30729,1.98437 0.99218,1.65365 2.3151,3.63802 3.30729,5.6224 -3.30729,0.99219 -6.94531,1.32292 -11.24479,1.98437 -1.98438,0 -3.96875,0.33073 -6.28386,0.33073 1.32292,-2.3151 2.31511,-4.29948 3.63802,-6.61458 1.32292,-2.3151 -1.98437,-4.29948 -3.30729,-1.98437 -1.65364,2.97656 -2.97656,5.62239 -4.63021,8.59895 -1.98437,-0.33073 -3.63802,-0.66145 -5.29166,-1.65364 -2.31511,-1.32292 -4.29948,-2.64584 -6.28386,-4.29948 6.28386,-1.98438 12.23698,-3.96875 18.52084,-5.6224 11.57552,-3.30729 23.48177,0.66146 35.38802,-2.64583 1.98437,-2.3151 0.99218,-6.28385 -1.32292,-5.6224"
             id="path33332"
             style="fill:#333333;fill-opacity:1;stroke-width:3.30729" /><path
             d="m 154.88733,59.108227 c 0,10.914062 8.92969,19.84375 19.84375,19.84375 10.91407,0 19.84375,-8.929688 19.84375,-19.84375 0,-10.914063 -8.92968,-19.843751 -19.84375,-19.843751 -10.91406,0 -19.84375,8.929688 -19.84375,19.843751"
             fill="#ffce31"
             id="path33336"
             style="fill:#22f26e;fill-opacity:1;stroke-width:3.30729" /></g></g></g></g></svg>
