<?xml version="1.0" encoding="UTF-8" standalone="no"?>
<!-- Created with Inkscape (http://www.inkscape.org/) -->

<svg
   width="151.86829mm"
   height="160.62273mm"
   viewBox="0 0 151.86829 160.62273"
   version="1.1"
   id="svg5"
   xml:space="preserve"
   xmlns="http://www.w3.org/2000/svg"
   xmlns:svg="http://www.w3.org/2000/svg"><defs
     id="defs2" /><g
     id="layer2"
     transform="translate(-42.6844,-67.969007)"><g
       id="g29785"
       transform="matrix(0.76062517,0,0,0.80368403,-502.04946,-126.81985)"><path
         fill="#607d8b"
         d="m 869.13884,415.23126 -5.72902,2.43416 c 0,0 -1.71211,0 -3.42424,-0.73591 -1.71211,-0.73591 -1.71211,-1.47181 -1.71211,-1.47181 l 5.729,-2.46245 c -3.22668,-0.33965 -7.11187,0.11322 -9.4825,1.13217 -3.55595,1.5284 -0.3951,3.48138 -1.31702,3.87763 -5.00465,2.23602 -18.80768,7.18263 -18.93937,7.26755 -1.51457,0.65099 -1.58043,1.69823 -0.13171,2.32092 1.44872,0.62269 3.88519,0.59438 5.39976,-0.0566 0.19756,-0.0849 13.07867,-5.6259 18.01748,-7.7487 0.92191,-0.39626 5.26806,1.04724 8.9557,-0.50947 2.30477,-1.01895 3.42423,-2.66057 2.63403,-4.04748 z m -31.91199,11.76788 c -0.92191,0 -1.64626,-0.31135 -1.64626,-0.7076 0,-0.42456 0.72435,-0.7359 1.64626,-0.7359 0.92191,0 1.64627,0.31134 1.64627,0.70759 0,0.39626 -0.72436,0.73591 -1.64627,0.73591 z"
         id="path23971"
         style="fill:#333333;fill-opacity:1;stroke-width:1.51403" /><g
         id="g24670"
         transform="matrix(0.21293757,0.02075265,0.01081454,0.12348295,721.4988,387.46084)"><path
           fill="#ffc107"
           d="m 464.18116,256.62183 69.85625,94.45328 a 4.8585672,4.8585672 6.7374451 0 0 7.03185,0.83071 l 17.94051,-15.07471 a 5.8454896,5.8454896 96.629947 0 0 0.92625,-7.96884 l -70.16417,-94.12876 z"
           id="path23980"
           style="fill:#1db954;fill-opacity:1;stroke-width:12.6043" /><path
           fill="#78909c"
           d="m 491.24377,173.54313 -20.14341,17.38059 c 2.53337,3.58314 0.55826,8.46299 -0.72495,9.52116 l -4.83977,4.02583 c -1.33487,-1.18407 -2.96927,-1.94263 -4.75502,-2.1302 -2.30258,-0.2598 -4.54391,0.40759 -6.31067,1.8868 l -12.73821,10.56459 c -0.0717,0.0548 -0.20611,0.18505 -0.31268,0.29481 l -2.68356,2.22104 c -5.52932,4.59276 -10.70065,8.88 -12.0055,9.97105 -11.22914,9.30787 -15.33441,47.30759 -15.76659,51.60813 l -0.32466,3.34482 7.22758,0.79089 c 0,0 0.83257,-2.19249 0.82128,-2.07621 0.28866,-0.57946 4.6186,-11.74296 20.36109,-24.18405 7.05661,-5.58114 16.24765,-11.22248 20.07679,-6.31854 0.0961,0.11235 0.59611,0.69978 2.30654,2.84151 0.16118,0.20174 0.31641,0.31273 0.48098,0.47958 l 4.80049,6.03256 25.14424,-22.57172 -5.87563,-7.38406 c -0.0353,-0.0548 -0.0925,-0.0728 -0.13258,-0.11634 l -3.12141,-3.90993 c 0.17239,-0.14173 1.08339,-0.89986 4.73508,-3.93544 1.3718,-1.13466 6.09538,-2.06313 9.02999,2.17497 0.66539,-0.54607 20.97932,-17.28913 20.97932,-17.28913 z"
           id="path23982"
           style="fill:#333333;fill-opacity:1;stroke-width:12.6043" /><path
           fill="#546e7a"
           d="m 471.10036,190.92372 c 2.53337,3.58314 0.55826,8.46299 -0.72495,9.52116 l -4.81963,4.00845 17.18367,21.35943 c 0.18887,-0.15951 1.11195,-0.92806 4.72338,-3.92889 1.37179,-1.13465 6.09537,-2.06312 9.02999,2.17497 z"
           id="path23984"
           style="fill:#232323;fill-opacity:1;stroke-width:12.6043" /></g><g
         id="g25020"
         transform="matrix(-0.25773687,-0.104154,0.08174991,-0.16324458,909.87634,569.87544)"><g
           id="g25015"><path
             id="rect24933"
             style="fill:#333333;fill-opacity:1;stroke:none;stroke-width:8.22533;stroke-dasharray:none;stroke-opacity:1"
             d="m 510.4018,492.85543 -19.6118,13.47031 -3.53615,8.86719 c -0.0419,0.10515 -0.006,0.25447 -0.0194,0.38063 -0.0129,0.12616 -0.0323,0.25121 -0.0577,0.37519 -0.0255,0.12397 -0.0568,0.24674 -0.0943,0.36755 -0.0375,0.12079 -0.0807,0.23945 -0.12992,0.35608 -0.0492,0.11664 -0.10444,0.23099 -0.16491,0.34247 -0.0605,0.11148 -0.12638,0.22023 -0.19766,0.32556 -0.0712,0.10531 -0.14762,0.20719 -0.22931,0.30538 -0.0816,0.0981 -0.16871,0.19297 -0.2604,0.28302 l -44.22074,40.51555 c -0.0916,0.0901 -0.18762,0.17495 -0.2876,0.25522 -0.10003,0.0803 -0.20423,0.15574 -0.31149,0.22576 -0.10722,0.07 -0.21794,0.13478 -0.33147,0.19414 -0.11351,0.0593 -0.22989,0.11311 -0.34867,0.16141 -0.11878,0.0483 -0.23956,0.0913 -0.36257,0.12815 -0.12302,0.0368 -0.24798,0.0678 -0.37422,0.0928 -0.12625,0.025 -0.25409,0.044 -0.38255,0.0567 -0.12846,0.0127 -0.25734,0.0191 -0.38699,0.0191 -0.12966,0 -0.2591,-0.006 -0.38756,-0.0191 -0.12844,-0.0127 -0.2563,-0.0317 -0.38255,-0.0567 -0.12623,-0.025 -0.25121,-0.0563 -0.37422,-0.0933 -0.12301,-0.0368 -0.24379,-0.0793 -0.36255,-0.1276 -0.11877,-0.0483 -0.23519,-0.10257 -0.34869,-0.16196 -0.1135,-0.0594 -0.22424,-0.12411 -0.33147,-0.19414 -0.10723,-0.07 -0.21099,-0.14497 -0.31093,-0.22521 -0.0999,-0.0802 -0.19597,-0.16571 -0.2876,-0.25576 -0.0955,-0.0936 -0.19486,-0.18159 -0.29705,-0.26339 -0.10218,-0.0818 -0.20721,-0.15736 -0.31537,-0.2274 -0.10815,-0.0701 -0.21918,-0.13418 -0.33258,-0.1925 -0.1134,-0.0584 -0.22909,-0.11094 -0.34701,-0.15759 -0.11793,-0.0466 -0.23804,-0.0877 -0.3598,-0.12271 -0.12174,-0.035 -0.24548,-0.0643 -0.37033,-0.0878 -0.12485,-0.0235 -0.25087,-0.0409 -0.3781,-0.0529 -0.12725,-0.0119 -0.25531,-0.0186 -0.38422,-0.0191 -0.12896,4.9e-4 -0.2575,0.007 -0.38477,0.0191 -0.12729,0.0119 -0.25377,0.0294 -0.37868,0.0529 -0.12489,0.0234 -0.24797,0.0528 -0.36977,0.0878 -0.1218,0.035 -0.24237,0.076 -0.36034,0.12271 -0.11799,0.0466 -0.23357,0.0992 -0.34702,0.15759 -0.11345,0.0584 -0.22438,0.12241 -0.33258,0.1925 -0.10821,0.0701 -0.21367,0.14608 -0.31593,0.22795 -0.10228,0.0819 -0.20146,0.1697 -0.29704,0.26338 l -36.57665,35.92475 c -0.0954,0.0938 -0.1848,0.19136 -0.26818,0.29175 -0.0834,0.10036 -0.16071,0.20349 -0.23208,0.30975 -0.0714,0.10626 -0.13657,0.21522 -0.19599,0.32665 -0.0594,0.11142 -0.11293,0.22549 -0.16047,0.34136 -0.0475,0.11588 -0.0893,0.23376 -0.12492,0.35337 -0.0357,0.11963 -0.0654,0.24108 -0.0894,0.36374 -0.024,0.12266 -0.0417,0.24636 -0.0538,0.37136 -0.0121,0.12499 -0.0189,0.25129 -0.0195,0.37791 4.9e-4,0.12656 0.008,0.25245 0.0195,0.37736 0.0121,0.12491 0.03,0.24879 0.0538,0.37137 0.0239,0.12258 0.0537,0.24364 0.0894,0.36318 0.0357,0.11954 0.0774,0.23757 0.12492,0.35337 0.0475,0.11581 0.101,0.22946 0.16047,0.34082 0.0594,0.11137 0.12461,0.22041 0.19599,0.32666 0.0713,0.10623 0.14871,0.20988 0.23208,0.31028 0.0834,0.10035 0.17275,0.19733 0.26818,0.29121 l 11.14061,10.94407 c 0.0955,0.0937 0.19481,0.18154 0.29705,0.26339 0.10229,0.0819 0.20771,0.15787 0.31592,0.22794 0.10822,0.0701 0.21912,0.13417 0.33258,0.1925 0.11347,0.0584 0.22959,0.11093 0.34758,0.15761 0.11799,0.0466 0.23799,0.0877 0.35978,0.12269 0.12181,0.035 0.24545,0.0643 0.37034,0.0878 0.1249,0.0235 0.25084,0.0409 0.37811,0.0529 0.12727,0.012 0.25585,0.0186 0.38478,0.0191 0.12888,-4.8e-4 0.25697,-0.007 0.38421,-0.0191 0.12725,-0.0119 0.25378,-0.0294 0.37866,-0.0529 0.12488,-0.0234 0.24799,-0.0528 0.36979,-0.0878 0.1218,-0.035 0.24235,-0.076 0.36034,-0.12269 0.11799,-0.0466 0.23355,-0.0992 0.34702,-0.15761 0.11346,-0.0584 0.22435,-0.12241 0.33258,-0.1925 0.10822,-0.0701 0.21366,-0.14608 0.31592,-0.22794 0.10229,-0.0819 0.20147,-0.1697 0.29704,-0.26339 l 36.57666,-35.9242 c 0.0954,-0.0939 0.18476,-0.1913 0.26817,-0.29175 0.0834,-0.10046 0.16067,-0.20399 0.23208,-0.31029 0.0715,-0.1063 0.13709,-0.21521 0.19656,-0.32665 0.0594,-0.11143 0.11289,-0.22549 0.16045,-0.34137 0.0476,-0.11587 0.0892,-0.23375 0.12492,-0.35337 0.0357,-0.11961 0.0655,-0.24108 0.0894,-0.36373 0.0239,-0.12265 0.0417,-0.24638 0.0538,-0.37136 0.0121,-0.12499 0.0185,-0.25129 0.0189,-0.37792 -4.5e-4,-0.12665 -0.006,-0.25233 -0.0189,-0.37736 -0.0121,-0.12503 -0.03,-0.24922 -0.0538,-0.3719 -0.0239,-0.12269 -0.0537,-0.2441 -0.0894,-0.36373 -0.0357,-0.11965 -0.0773,-0.23749 -0.12492,-0.35338 -0.0475,-0.11589 -0.101,-0.22994 -0.16045,-0.34137 -0.0594,-0.11142 -0.12519,-0.22038 -0.19656,-0.32664 -0.0713,-0.10627 -0.14872,-0.20936 -0.23208,-0.30974 -0.0834,-0.10036 -0.17279,-0.19794 -0.26817,-0.29175 -0.0917,-0.09 -0.17817,-0.18429 -0.25986,-0.28248 -0.0817,-0.0981 -0.15858,-0.20005 -0.22986,-0.30539 -0.0712,-0.10531 -0.13721,-0.21407 -0.19766,-0.32555 -0.0604,-0.11148 -0.11515,-0.22582 -0.16435,-0.34246 -0.0492,-0.11665 -0.0924,-0.23584 -0.12992,-0.35665 -0.0375,-0.12079 -0.0695,-0.24356 -0.095,-0.36754 -0.0255,-0.12397 -0.0448,-0.24904 -0.0577,-0.37518 -0.0129,-0.12615 -0.0195,-0.25331 -0.0195,-0.38064 0,-0.12733 0.006,-0.25394 0.0195,-0.38008 0.0129,-0.12616 0.0323,-0.25175 0.0577,-0.37574 0.0255,-0.12398 0.0574,-0.24672 0.095,-0.36754 0.0375,-0.12082 0.0807,-0.23997 0.12992,-0.35664 0.0492,-0.11666 0.1039,-0.23096 0.16435,-0.34247 0.0605,-0.1115 0.12638,-0.2202 0.19766,-0.32555 0.0712,-0.10531 0.14818,-0.20719 0.22986,-0.30538 0.0817,-0.0983 0.16627,-0.19674 0.25986,-0.28248 l 44.22239,-40.51392 c 0.0916,-0.0901 0.18765,-0.17552 0.28761,-0.25576 0.0999,-0.0802 0.20425,-0.15522 0.31148,-0.22521 0.10723,-0.07 0.21743,-0.13479 0.33092,-0.19414 0.11348,-0.0593 0.22994,-0.11313 0.34868,-0.16141 0.11873,-0.0483 0.24014,-0.0913 0.36311,-0.12816 0.12298,-0.0368 0.24747,-0.0677 0.37368,-0.0928 0.1262,-0.025 0.25411,-0.0435 0.38255,-0.0561 0.12844,-0.0127 0.26372,0.0288 0.38699,-0.0191 l 7.74843,-3.01351 14.99475,-19.72208 z" /></g><path
           d="m 443.11968,570.74838 -8.14033,-8.17655 c -1.12385,-1.12914 -2.94596,-1.12914 -4.07005,0 -1.12384,1.12887 -1.12384,2.95939 0,4.08827 l 8.14034,8.17655 c 1.12385,1.12887 2.94595,1.12887 4.07004,0 1.12385,-1.12888 1.12385,-2.9594 0,-4.08827 m -33.17037,29.23052 23.02398,-23.1271 c 1.12384,-1.12912 1.12384,-2.95939 0,-4.08825 -1.12409,-1.12914 -2.9462,-1.12914 -4.07004,0 l -23.02398,23.12708 c -1.12409,1.12888 -1.12409,2.95915 0,4.08827 1.12384,1.12888 2.94595,1.12888 4.07004,0"
           fill="#ff9966"
           id="path23997"
           style="fill:#1db954;fill-opacity:1;stroke:#1db954;stroke-width:0.124062;stroke-opacity:1" /></g><path
         style="fill:#1db954;fill-opacity:1;stroke:#333333;stroke-width:5.08884;stroke-dasharray:none;stroke-opacity:1"
         d="m 889.42737,381.58133 c -0.0113,-0.56402 -0.068,-27.78987 -0.12469,-60.50193 l -0.10308,-59.47647 -0.57757,-0.60357 c -0.31766,-0.33201 -0.58605,-0.46384 -0.59645,-0.29301 -0.0236,0.38817 -0.10102,120.44948 -0.0782,121.28836 0.01,0.35744 0.32553,0.61207 0.75913,0.61207 0.62225,0 0.739,-0.1661 0.72088,-1.02545 z"
         id="path20901-3" /><g
         id="g29712"
         transform="matrix(0.80648901,0,0,0.80107499,148.6101,72.379035)"><g
           id="g29672"><g
             id="g29633"><g
               id="g29595"><g
                 id="g29558"><g
                   id="g29522"><g
                     id="g29487"><g
                       id="g29453"><g
                         id="g29418"><g
                           id="g29386"><g
                             id="g29355"><g
                               id="g29325"><g
                                 id="g29296"><g
                                   id="g29268"><g
                                   id="g29241"><g
                                   id="g29215"><g
                                   id="g29190"><g
                                   id="g29166"><g
                                   id="g29143"><g
                                   id="g29121"><g
                                   id="g29100"><g
                                   id="g29080"><g
                                   id="g29061"><g
                                   id="g29043"><g
                                   id="g29026"><g
                                   id="g29010"><g
                                   id="g28995"><g
                                   id="g28981"><g
                                   id="g28968"><g
                                   id="g28956"><g
                                   id="g28945"><g
                                   id="g28935"><g
                                   id="g28918"
                                   transform="matrix(1.6439304,-0.23035592,0.18957458,0.97681364,-614.15452,213.50516)"
                                   class="UnoptimicedTransforms"><g
                                   id="g28910"><g
                                   id="g28903"><g
                                   id="g28897"><path
                                   style="fill:#1db954;fill-opacity:1;stroke:none;stroke-width:4.99999;stroke-dasharray:none;stroke-opacity:1"
                                   id="rect26555"
                                   width="46.829559"
                                   height="41.897232"
                                   x="963.02051"
                                   y="-841.91388"
                                   transform="matrix(0.40963155,0.91225106,-0.60702524,0.79468255,0,0)"
                                   d="m 968.41574,-841.91388 36.31976,0 a 5.1146017,5.1146017 80.782526 0 1 5.1146,5.1146 v 30.76411 a 6.0185181,6.0185181 5.6549662 0 1 -6.0186,6.01852 h -35.58045 a 5.2305418,5.2305418 0 0 1 -5.23054,-5.23054 v -31.27146 a 5.3952294,5.3952294 0 0 1 5.39523,-5.39523 z"
                                   class="UnoptimicedTransforms" /><path
                                   style="fill:none;fill-opacity:1;stroke:#333333;stroke-width:1.30003;stroke-dasharray:none;stroke-opacity:1"
                                   id="rect26555-9"
                                   width="41.898781"
                                   height="37.461761"
                                   x="959.17651"
                                   y="-833.21423"
                                   transform="matrix(0.41310229,0.91068463,-0.61080123,0.79178397,0,0)"
                                   d="m 961.39769,-833.21423 37.25561,0 a 2.4219968,2.4219968 0 0 1 2.422,2.42199 l 0,32.43914 a 2.6006274,2.6006274 0 0 1 -2.60063,2.60063 l -37.22555,0 a 2.072611,2.072611 58.282526 0 1 -2.07261,-2.07261 l 0,-33.16798 a 2.2211716,2.2211716 28.154966 0 1 2.22118,-2.22117 z" /><path
                                   fill-rule="evenodd"
                                   clip-rule="evenodd"
                                   d="m 900.4046,259.94272 -0.81126,-4.57864 -1.18724,0.21116 -0.41421,-2.2823 2.76307,-2.03176 -0.52359,-1.54809 -2.53894,1.93863 -0.85309,-4.70964 -4.67337,11.05608 z m 4.21943,-28.23654 c 0.0719,-3.99526 -3.15952,-3.80339 -2.96011,0.59945 0.20006,4.45666 2.89256,3.24289 2.96011,-0.59945 z m -3.33612,16.37464 c -0.21143,1.67044 0.32296,2.10808 0.69417,2.21948 l -0.63411,9.60948 c 0,0 1.14922,1.6876 1.43096,-0.8188 0.30785,-2.74748 0.89751,-7.85819 0.89751,-7.85819 0,0 2.98208,-1.83981 3.95713,-2.75312 0.72254,-0.67619 1.01423,-1.63455 0.96769,-3.00467 l 1.63443,-1.2064 -0.005,-0.0655 c 0.42304,-0.26349 0.953,-1.45855 0.77322,-2.61865 0.0568,0.32755 -0.90032,-6.0513 -0.90032,-6.0513 0,0 -2.02746,-0.29468 -3.5084,-0.53905 -2.36513,-0.3843 -3.96102,2.9419 -3.96102,2.9419 0,0 -1.16801,8.73539 -1.34628,10.14485 z m 7.64849,-9.28335 0.74498,3.6836 -1.32762,1.01718 c -0.32376,-1.81125 -0.60011,-3.43302 -0.88023,-5.05205 z m -4.75007,1.06266 1.03028,6.02304 -2.46451,1.87649 z m 2.24444,11.39287 2.34136,10.65946 c 0,0 1.31737,-0.28233 0.97927,-2.6872 -0.42881,-3.03698 -1.27441,-9.53769 -1.27441,-9.53769 z"
                                   fill="#000000"
                                   id="path25403"
                                   style="fill:#333333;fill-opacity:1;stroke:none;stroke-width:0.249368" /></g></g></g></g></g></g></g></g></g></g></g></g></g></g></g></g></g></g></g></g></g></g></g></g></g></g></g></g></g></g></g></g></g></g></g></g><g
         id="g26663"
         transform="translate(-1.6794875,11.614827)"><path
           d="m 815.44907,371.35721 c 1.81798,0 3.59882,0.0549 5.3619,0.12594 l 2.79638,-21.08752 -0.30676,-0.0727 0.49727,-5.75422 h 4.30114 l 6.50337,0.40363 -0.65388,6.06422 -1.51444,0.0581 -2.08438,18.39608 16.60233,4.73384 2.51384,-18.72383 -0.30353,-0.0937 0.49566,-5.75422 h 4.264 l 6.54374,0.40363 -0.7992,5.95443 -1.37398,0.12917 -2.86903,22.77471 c 5.32314,2.76894 8.46019,6.11265 8.46019,9.72599 0,5.76553 -13.26507,17.28043 -48.43462,17.28043 -26.75132,0 -48.43784,-7.73526 -48.43784,-17.28043 0,-9.54516 21.68652,-17.28366 48.43784,-17.28366 m 13.9125,-0.46983 c 0,0 -0.13723,-0.0194 -0.34228,-0.0194 -0.51342,0 -1.45631,0.12109 -1.73402,0.97195 -0.55863,1.71788 1.02524,2.73343 1.02524,2.73343 l 17.88104,5.33282 0.54572,-4.06541 -17.3757,-4.95341 m 18.73514,27.48594 5.46683,-41.78755 -0.44238,0.0404 -2.09083,-0.64421 -5.81558,43.40048 c 0.66842,-0.22119 2.64947,-0.92675 2.88196,-1.00909 m -22.51962,-4.26077 17.9876,5.36351 0.54571,-4.06542 -17.48063,-4.9857 c 0,0 -0.13724,-0.0194 -0.34228,-0.0194 -0.51504,0 -1.45793,0.12109 -1.73402,0.97195 -0.55863,1.71949 1.02362,2.73503 1.02362,2.73503 m -3.99437,8.57483 6.15947,-51.41183 -0.38749,0.0162 -2.16833,-0.51665 -6.85857,51.97207 c 0.99779,-0.0145 2.22807,-0.0339 3.25492,-0.0597"
           fill="#000000"
           id="path18401"
           style="fill:#333333;fill-opacity:1;stroke:none;stroke-width:1.61454;stroke-opacity:1" /><path
           style="fill:#1db954;fill-opacity:1;stroke:none;stroke-width:4.67413;stroke-dasharray:none;stroke-opacity:1"
           d="m 846.91541,398.67207 c 0.90679,-0.32133 1.04916,-0.47633 1.17476,-1.279 0.0786,-0.50235 1.25502,-9.48368 2.61425,-19.95851 1.35923,-10.47482 2.5296,-19.38876 2.60082,-19.80874 0.12158,-0.71698 0.067,-0.78233 -0.89395,-1.07024 -0.56289,-0.16865 -1.1018,-0.21458 -1.19757,-0.10208 -0.15459,0.18159 -5.7379,41.54456 -5.7117,42.31409 0.0128,0.37474 0.10366,0.36859 1.41339,-0.0955 z"
           id="path20897" /><path
           style="fill:#1db954;fill-opacity:1;stroke:none;stroke-width:4.67413;stroke-dasharray:none;stroke-opacity:1"
           d="m 846.0964,379.414 c 0.0603,-0.15704 0.1864,-1.00302 0.28031,-1.87997 l 0.17076,-1.59444 -8.61076,-2.45551 c -4.73592,-1.35052 -8.8922,-2.43411 -9.23618,-2.40796 -1.45347,0.11048 -1.83924,1.79135 -0.67209,2.9284 0.70807,0.6898 17.9035,5.83806 18.06796,5.40948 z"
           id="path20899" /><path
           style="fill:#1db954;fill-opacity:1;stroke:none;stroke-width:4.67413;stroke-dasharray:none;stroke-opacity:1"
           d="m 821.53314,402.10668 c 0.007,-0.23807 1.37418,-11.73008 3.03845,-25.5378 l 3.02594,-25.10496 -1.12158,-0.25477 c -0.61686,-0.14013 -1.14615,-0.19578 -1.17619,-0.12367 -0.0683,0.16384 -6.74721,50.8416 -6.74721,51.19569 0,0.15087 0.61739,0.25835 1.48403,0.25835 1.24371,0 1.48607,-0.0701 1.49656,-0.43284 z"
           id="path20901" /><path
           style="fill:#1db954;fill-opacity:1;stroke:none;stroke-width:4.67413;stroke-dasharray:none;stroke-opacity:1"
           d="m 843.70736,397.54763 c 0.12332,-0.99547 0.16255,-1.88136 0.0872,-1.96865 -0.0754,-0.0873 -4.06849,-1.27799 -8.87359,-2.646 -9.18943,-2.61622 -9.56945,-2.67375 -10.17586,-1.54065 -0.34735,0.64903 -0.10739,1.57354 0.56838,2.18981 0.33439,0.30494 3.7234,1.43375 9.02138,3.00482 4.66719,1.38402 8.63486,2.5736 8.81704,2.64351 0.247,0.0948 0.38828,-0.33322 0.55547,-1.68284 z"
           id="path20903" /></g><g
         style="fill:#1db954;fill-opacity:1;stroke:#333333;stroke-opacity:1"
         id="g17813"
         transform="matrix(1.3852189,0,0,1.3852189,705.77652,350.21723)"><g
           id="a"
           style="fill:#1db954;fill-opacity:1;stroke:#333333;stroke-opacity:1" /><g
           id="b"
           style="fill:#1db954;fill-opacity:1;stroke:#333333;stroke-opacity:1"><path
             d="M 46.5869,13.3867 C 45.056,10.9496 42.5329,10.9873 42.2927,11 H 19.5 c -0.1895,0 -0.3623,0.1074 -0.4473,0.2764 C 13.0888,23.2041 8.0576,52.1241 8.0073,52.4151 7.9824,52.5606 8.0224,52.709 8.1177,52.8223 8.2124,52.9346 8.3526,53 8.5,53 h 9.3262 c 0.1836,0 0.3525,-0.1006 0.4399,-0.2627 l 1.5542,-2.8789 h 14.2441 l 2.001,2.9238 C 36.1592,52.9189 36.3134,53 36.4785,53 h 7.5 c 0.1338,0 0.2617,-0.0537 0.3555,-0.1484 0.0938,-0.0947 0.1465,-0.2236 0.1445,-0.3574 l -0.0314,-2.6074 h 2.1534 l 1.5693,2.8545 c 0.0879,0.1592 0.2559,0.2588 0.4385,0.2588 h 6.8477 c 0.1514,0 0.2939,-0.0684 0.3887,-0.1855 0.0947,-0.1182 0.1318,-0.2715 0.1006,-0.4199 -0.8066,-3.751 -7.9189,-36.7178 -9.3584,-39.0078 z M 36.7422,52 34.7412,49.0762 c -0.0938,-0.1367 -0.248,-0.2178 -0.4131,-0.2178 H 19.5219 c -0.1836,0 -0.3525,0.1006 -0.4399,0.2627 L 17.5278,52 H 9.0962 C 9.8369,47.8682 14.439,23.0068 19.8106,12 h 22.3789 c 0.793,0.3818 0.832,0.9326 0.832,2.5059 L 43.4727,52 Z M 27.9185,26.0781 c -0.0908,-0.1494 -0.2529,-0.2412 -0.4277,-0.2412 -0.1748,0 -0.3369,0.0918 -0.4277,0.2412 l -11,18.1631 c -0.0933,0.1543 -0.0967,0.3467 -0.0078,0.5039 C 16.1437,44.9023 16.3102,45 16.4908,45 h 21.9995 c 0.1807,0 0.3467,-0.0977 0.4355,-0.2549 0.0888,-0.1572 0.0859,-0.3496 -0.0078,-0.5039 z M 28,41.5 C 28,41.7764 27.7764,42 27.5,42 27.2236,42 27,41.7764 27,41.5 v -1 c 0,-0.2764 0.2236,-0.5 0.5,-0.5 0.2764,0 0.5,0.2236 0.5,0.5 z m 0,-3 C 28,38.7764 27.7764,39 27.5,39 27.2236,39 27,38.7764 27,38.5 v -6 c 0,-0.2764 0.2236,-0.5 0.5,-0.5 0.2764,0 0.5,0.2236 0.5,0.5 z m 11,-21 c 0,0.2764 -0.2236,0.5 -0.5,0.5 h -16 C 22.2236,18 22,17.7764 22,17.5 22,17.2236 22.2236,17 22.5,17 h 16 c 0.2764,0 0.5,0.2236 0.5,0.5 z"
             id="path17801"
             style="fill:#1db954;fill-opacity:1;stroke:#333333;stroke-opacity:1" /></g></g><g
         id="g28890"
         transform="matrix(1,0,0,1.0479485,-138.7855,79.812721)"><path
           d="m 1021.5549,260.33432 -12.6065,45.40345 13.4854,-0.0174 9.3789,-0.0497 13.3222,-0.1771 -12.5134,-45.04087 a 2.0583088,2.0583088 37.073998 0 0 -1.9948,-1.5073 l -7.3098,0.0415 a 1.8395679,1.8395679 142.59602 0 0 -1.762,1.34739 z"
           fill="#ecf0f1"
           id="path27812-9"
           style="fill:#333333;fill-opacity:1;stroke-width:2.64379" /><path
           d="m 1006.4912,302.43159 -2.7919,3.08951 a 3.2739928,3.2739928 65.857211 0 0 2.4513,5.46899 l 41.1984,-0.27894 a 3.3259783,3.3259783 111.91284 0 0 2.2968,-5.70978 l -3.4313,-3.33841 a 2.9011841,2.9011841 22.008471 0 0 -2.033,-0.82175 l -34.3907,0.11805 a 4.4678815,4.4678815 155.95284 0 0 -3.2996,1.47233 z"
           fill="#f39c12"
           id="path27814-4"
           style="fill:#333333;fill-opacity:1;stroke-width:2.64379" /><g
           id="g28681"
           transform="translate(88.505323,-85.201162)"><path
             id="rect27822"
             transform="matrix(0.99998473,-0.00552643,0,1,0,0)"
             d="m 916.12408,397.16888 h 44.13345 v 1.57957 a 1.1611561,1.1611561 135 0 1 -1.16116,1.16116 h -41.87609 a 1.0961975,1.0961975 45 0 1 -1.0962,-1.0962 z"
             style="display:inline;fill:#44925e;fill-opacity:1;stroke-width:2.37997" /><path
             d="m 934.12872,346.26704 -11.94059,43.59167 12.22904,-0.0694 8.15178,-0.0463 12.22766,-0.0694 -11.95395,-43.50966 a 1.3473218,1.3473218 37.156126 0 0 -1.30683,-0.99036 l -6.02685,0.0342 a 1.4395719,1.4395719 142.49672 0 0 -1.38026,1.05924 z"
             fill="#ecf0f1"
             id="path27812"
             style="display:inline;fill:#333333;fill-opacity:1;stroke-width:2.37995" /><path
             d="m 919.4663,388.01834 -3.24761,3.53461 a 0.48551763,0.48551763 66.125844 0 0 0.36027,0.814 l 42.94667,-0.24377 a 0.74028827,0.74028827 113.39926 0 0 0.5383,-1.24398 l -2.2922,-2.46875 a 3.799528,3.799528 23.399254 0 0 -2.80596,-1.2142 l -34.07913,0.19344 a 1.9438317,1.9438317 156.12584 0 0 -1.42034,0.62865 z"
             fill="#f39c12"
             id="path27814"
             style="fill:#1db954;fill-opacity:1;stroke-width:2.37995" /><path
             d="m 934.11553,346.31494 -1.73699,6.33985 12.22835,-0.0694 -1.76224,-6.41417 a 1.3571293,1.3571293 37.156201 0 0 -1.31634,-0.99757 l -5.96964,0.0339 a 1.5051759,1.5051759 142.49843 0 0 -1.44314,1.10742 z m -4.47552,16.26101 -2.73876,9.92117 23.18362,-0.13159 -2.74014,-9.89007 z m -5.41371,19.84197 -2.03817,7.44079 12.22904,-0.0694 8.15178,-0.0463 12.22766,-0.0694 -2.03795,-7.41765 -28.53122,0.16195 z"
             fill="#e67e22"
             id="path27816"
             style="fill:#1db954;fill-opacity:1;stroke-width:2.37995" /><path
             d="m 934.1213,346.29414 -11.47751,41.90107 a 1.3081387,1.3081387 52.496755 0 0 1.26909,1.65371 l 10.50429,-0.0596 4.07588,-0.0231 v -44.57529 l -2.95597,0.0167 a 1.476608,1.476608 142.49711 0 0 -1.41578,1.08648 z"
             fill="#bdc3c7"
             id="path27818"
             style="fill:#252525;fill-opacity:1;stroke-width:2.37995" /><path
             d="m 934.13239,346.23659 -1.75385,6.4182 6.11451,-0.0347 v -7.42922 l -3.04202,0.0291 a 1.3806631,1.3806631 142.36815 0 0 -1.31864,1.01666 z m -4.49238,16.33936 -2.73876,9.92117 11.5918,-0.0658 v -9.90562 z m -5.41371,19.84197 -1.57524,5.75075 a 1.3290131,1.3290131 52.496738 0 0 1.28934,1.6801 l 10.47677,-0.0595 4.07588,-0.0231 V 382.337 Z"
             fill="#d35400"
             id="path27820"
             style="fill:#44925e;fill-opacity:1;stroke-width:2.37995" /></g></g></g></g></svg>
